<svg width="24" height="24" viewBox="0 0 24 24" fill="none" xmlns="http://www.w3.org/2000/svg">
<path d="M17 4H16H6.57001C5.50001 4 4.59001 4.67 4.38001 5.61L3.04001 11.61C2.77001 12.85 3.82001 14 5.23001 14H9.46001L7.94001 18.94C7.62001 19.97 8.46001 21 9.62001 21C10.2 21 10.76 20.76 11.14 20.35L17 14H21V4H17ZM10.4 19.67C10.21 19.88 9.92001 20 9.62001 20C9.36001 20 9.12001 19.89 8.99001 19.7C8.92001 19.6 8.84001 19.44 8.90001 19.23L10.42 14.29L10.82 13H9.46001H5.23001C4.82001 13 4.43001 12.83 4.20001 12.54C4.08001 12.39 3.95001 12.14 4.02001 11.82L5.36001 5.82C5.46001 5.35 5.97001 5 6.57001 5H16V13.61L10.4 19.67ZM20 13H17V5H20V13Z" fill="white"/>
</svg>
