<svg width="24" height="24" viewBox="0 0 24 24" fill="none" xmlns="http://www.w3.org/2000/svg">
<path d="M7.5 12C7.5 12.83 6.83 13.5 6 13.5C5.17 13.5 4.5 12.83 4.5 12C4.5 11.17 5.17 10.5 6 10.5C6.83 10.5 7.5 11.17 7.5 12ZM12 10.5C11.17 10.5 10.5 11.17 10.5 12C10.5 12.83 11.17 13.5 12 13.5C12.83 13.5 13.5 12.83 13.5 12C13.5 11.17 12.83 10.5 12 10.5ZM18 10.5C17.17 10.5 16.5 11.17 16.5 12C16.5 12.83 17.17 13.5 18 13.5C18.83 13.5 19.5 12.83 19.5 12C19.5 11.17 18.83 10.5 18 10.5Z" fill="white"/>
</svg>
