<svg width="240" height="24" viewBox="0 0 240 24" fill="none" xmlns="http://www.w3.org/2000/svg">
<path d="M12 3C10.34 3 9 4.37 9 6.07V11.93C9 13.63 10.34 15 12 15C13.66 15 15 13.63 15 11.93V6.07C15 4.37 13.66 3 12 3ZM18.5 12H17.5C17.5 15.03 15.03 17.5 12 17.5C8.97 17.5 6.5 15.03 6.5 12H5.5C5.5 15.24 7.89 17.93 11 18.41V21H13V18.41C16.11 17.93 18.5 15.24 18.5 12Z" fill="white"/>
<path d="M50 13H47V16H45V13H42V11H45V8H47V11H50V13ZM53 6H39V18H53V11.61L57 13.44V8.56L53 10.39V6ZM54 5V8.83L58 7V15L54 13.17V19H38V5H54Z" fill="white"/>
<path d="M88 4V8H92V4H88ZM91 7H89V5H91V7ZM88 10V14H92V10H88ZM91 13H89V11H91V13ZM82 4V8H86V4H82ZM85 7H83V5H85V7ZM82 10V14H86V10H82ZM85 13H83V11H85V13ZM88 16V20H92V16H88ZM91 19H89V17H91V19ZM82 16V20H86V16H82ZM85 19H83V17H85V19ZM76 4V8H80V4H76ZM79 7H77V5H79V7ZM76 10V14H80V10H76ZM79 13H77V11H79V13ZM76 16V20H80V16H76ZM79 19H77V17H79V19Z" fill="white"/>
<path d="M118 20H122C122 21.1 121.1 22 120 22C118.9 22 118 21.1 118 20ZM128 17.35V19H112V17.35L114 15.47V10.32C114 7.40001 115.56 5.10001 118 4.34001V3.96001C118 2.54001 119.49 1.46001 120.99 2.20001C121.64 2.52001 122 3.23001 122 3.96001V4.35001C124.44 5.10001 126 7.41001 126 10.33V15.48L128 17.35ZM127 17.77L125 15.89V10.42C125 7.95001 123.81 6.06001 121.87 5.32001C120.61 4.79001 119.23 4.82001 118.03 5.35001C116.15 6.11001 115 7.99001 115 10.42V15.89L113 17.77V18H127V17.77Z" fill="white"/>
<path d="M164.87 20.17L159.28 14.58C160.35 13.35 161 11.75 161 10C161 6.13 157.87 3 154 3C150.13 3 147 6.13 147 10C147 13.87 150.13 17 154 17C155.75 17 157.35 16.35 158.58 15.29L164.17 20.88L164.87 20.17ZM154 16C150.69 16 148 13.31 148 10C148 6.69 150.69 4 154 4C157.31 4 160 6.69 160 10C160 13.31 157.31 16 154 16Z" fill="white"/>
<path d="M201 6H183V5H201V6ZM201 11H183V12H201V11ZM201 17H183V18H201V17Z" fill="white"/>
<path d="M223.455 18.975L230.43 12L223.455 5.02501L224.52 3.96001L232.545 12L224.52 20.025L223.455 18.975Z" fill="white"/>
</svg>
