<svg width="40" height="40" viewBox="0 0 40 40" fill="none" xmlns="http://www.w3.org/2000/svg">
<path d="M18 28H22C22 29.1 21.1 30 20 30C18.9 30 18 29.1 18 28ZM28 25.35V27H12V25.35L14 23.47V18.32C14 15.4 15.56 13.1 18 12.34V11.96C18 10.54 19.49 9.46 20.99 10.2C21.64 10.52 22 11.23 22 11.96V12.35C24.44 13.1 26 15.41 26 18.33V23.48L28 25.35ZM27 25.77L25 23.89V18.42C25 15.95 23.81 14.06 21.87 13.32C20.61 12.79 19.23 12.82 18.03 13.35C16.15 14.11 15 15.99 15 18.42V23.89L13 25.77V26H27V25.77Z" fill="white"/>
</svg>
