<svg width="168" height="96" viewBox="0 0 168 96" fill="none" xmlns="http://www.w3.org/2000/svg">
<path d="M4 10V21H10V15H14V21H20V10L12 3L4 10Z" fill="white"/>
<path d="M47.23 13.08C46.94 12.87 46.75 12.57 46.69 12.22C46.63 11.87 46.71 11.51 46.92 11.23C47.13 10.94 47.43 10.75 47.78 10.69C48.13 10.63 48.48 10.71 48.77 10.92C49.06 11.13 49.25 11.43 49.31 11.78C49.37 12.13 49.29 12.49 49.08 12.77C48.87 13.06 48.57 13.25 48.22 13.31C48.15 13.32 48.07 13.33 48 13.33C47.72 13.33 47.45 13.25 47.23 13.08ZM58 12C58 17.52 53.52 22 48 22C42.48 22 38 17.52 38 12C38 6.48 42.48 2 48 2C53.52 2 58 6.48 58 12ZM54.03 5.97L45.8 9.8L41.97 18.03L50.2 14.2L54.03 5.97Z" fill="white"/>
<path d="M92 7H76V6H92V7ZM94 9V21H74V9H94ZM87 15L82 12V18L87 15ZM89 3H79V4H89V3Z" fill="white"/>
<path d="M112 20H126V21H111V6H112V20ZM129 3V18H114V3H129ZM125 10.5L119 7V14L125 10.5Z" fill="white"/>
<path d="M158.97 16.95L154 13.87V7H156V12.76L160.03 15.25L158.97 16.95ZM156 2C152.73 2 149.8 3.44 148 5.83V3.02H146V9H152V7H149.62C151.08 5.09 153.36 4 156 4C160.41 4 164 7.59 164 12C164 16.41 160.41 20 156 20C151.59 20 148 16.41 148 12H146C146 17.51 150.49 22 156 22C161.51 22 166 17.51 166 12C166 6.49 161.51 2 156 2Z" fill="white"/>
<path d="M12 38C6.48 38 2 42.48 2 48C2 53.52 6.48 58 12 58C17.52 58 22 53.52 22 48C22 42.48 17.52 38 12 38ZM14.97 52.95L10 49.87V43H12V48.76L16.03 51.25L14.97 52.95Z" fill="white"/>
<path d="M39 47H42V57H39V47ZM54.77 47H50.54L52.06 42.06C52.38 41.03 51.54 40 50.38 40C49.8 40 49.24 40.24 48.86 40.65L43 47V57H53.43C54.49 57 55.41 56.33 55.62 55.39L56.96 49.39C57.23 48.15 56.18 47 54.77 47Z" fill="white"/>
<path d="M93.58 43.19C93.4656 42.7659 93.242 42.3792 92.9314 42.0686C92.6208 41.758 92.2341 41.5344 91.81 41.42C90.25 41 84 41 84 41C84 41 77.75 41 76.19 41.42C75.7659 41.5344 75.3792 41.758 75.0686 42.0686C74.758 42.3792 74.5343 42.7659 74.42 43.19C74.1303 44.7767 73.9897 46.3871 74 48C73.9897 49.6129 74.1303 51.2233 74.42 52.81C74.5343 53.2341 74.758 53.6208 75.0686 53.9314C75.3792 54.242 75.7659 54.4656 76.19 54.58C77.75 55 84 55 84 55C84 55 90.25 55 91.81 54.58C92.2341 54.4656 92.6208 54.242 92.9314 53.9314C93.242 53.6208 93.4656 53.2341 93.58 52.81C93.8696 51.2233 94.0102 49.6129 94 48C94.0102 46.3871 93.8696 44.7767 93.58 43.19ZM82 50.65V45.35L87 48L82 50.65Z" fill="white"/>
<path d="M124.97 40L119.98 42.8L114.99 40L110 42.8V50.4L119.98 56L129.96 50.4V42.8L124.97 40ZM118 48H116V50H114V48H112V46H114V44H116V46H118V48ZM123.5 50C122.67 50 122 49.33 122 48.5C122 47.67 122.67 47 123.5 47C124.33 47 125 47.67 125 48.5C125 49.33 124.33 50 123.5 50ZM126.5 47C125.67 47 125 46.33 125 45.5C125 44.67 125.67 44 126.5 44C127.33 44 128 44.67 128 45.5C128 46.33 127.33 47 126.5 47Z" fill="white"/>
<path d="M158 48C158 49.1 157.1 50 156 50C154.9 50 154 49.1 154 48C154 46.9 154.9 46 156 46C157.1 46 158 46.9 158 48ZM150.36 42.33L148.95 40.92C147.13 42.73 146 45.24 146 48C146 50.76 147.13 53.27 148.95 55.08L150.36 53.67C148.9 52.22 148 50.21 148 48C148 45.79 148.9 43.78 150.36 42.33ZM163.05 40.92L161.64 42.33C163.1 43.78 164 45.79 164 48C164 50.21 163.1 52.22 161.64 53.67L163.05 55.08C164.87 53.27 166 50.76 166 48C166 45.24 164.87 42.73 163.05 40.92ZM153.19 45.16L151.77 43.75C150.68 44.83 150 46.34 150 48C150 49.66 150.68 51.17 151.77 52.25L153.18 50.84C152.46 50.11 152 49.11 152 48C152 46.89 152.46 45.89 153.19 45.16ZM160.23 43.75L158.82 45.16C159.54 45.89 160 46.89 160 48C160 49.11 159.54 50.11 158.81 50.84L160.22 52.25C161.32 51.17 162 49.66 162 48C162 46.34 161.32 44.83 160.23 43.75Z" fill="white"/>
<path d="M18 77V74H6V77H4V78V82V83H6.01C6.07 85.53 7.63 87.78 9.97 88.64C9.98 88.64 9.99 88.64 10 88.65V91H9V92H8V94H16V92H15V91H14V88.65C14.01 88.65 14.02 88.65 14.03 88.64C16.36 87.78 17.93 85.54 17.99 83H20V82V78V77H18ZM6 82H5V78H6V82ZM19 82H18V78H19V82Z" fill="white"/>
<path d="M50 75H41V93H42V84H48.6L49 86H56V77H50.4L50 75Z" fill="white"/>
<path d="M90.4 86.6L84 80.3L77.6 86.6L78.4 87.4L84 81.7L89.6 87.4L90.4 86.6Z" fill="white"/>
</svg>
