<svg width="168" height="132" viewBox="0 0 168 132" fill="none" xmlns="http://www.w3.org/2000/svg">
<path d="M12 4.33L19 10.45V20H15V14H9V20H5V10.45L12 4.33ZM12 3L4 10V21H10V15H14V21H20V10L12 3Z" fill="white"/>
<path d="M45.8 9.8L41.97 18.03L50.2 14.2L54.03 5.97L45.8 9.8ZM49.08 12.77C48.87 13.06 48.57 13.25 48.22 13.31C48.15 13.32 48.07 13.33 48 13.33C47.72 13.33 47.46 13.25 47.23 13.08C46.94 12.87 46.75 12.57 46.69 12.22C46.63 11.87 46.71 11.51 46.92 11.23C47.13 10.94 47.43 10.75 47.78 10.69C48.13 10.63 48.48 10.71 48.77 10.92C49.06 11.13 49.25 11.43 49.31 11.78C49.37 12.13 49.29 12.48 49.08 12.77ZM48 3C52.96 3 57 7.04 57 12C57 16.96 52.96 21 48 21C43.04 21 39 16.96 39 12C39 7.04 43.04 3 48 3ZM48 2C42.48 2 38 6.48 38 12C38 17.52 42.48 22 48 22C53.52 22 58 17.52 58 12C58 6.48 53.52 2 48 2Z" fill="white"/>
<path d="M82 18V12L87 15L82 18ZM89 3H79V4H89V3ZM92 6H76V7H92V6ZM94 9H74V21H94V9ZM75 10H93V20H75V10Z" fill="white"/>
<path d="M119 7L125 10.5L119 14V7ZM126 20H112V6H111V21H126V20ZM129 18H114V3H129V18ZM115 17H128V4H115V17Z" fill="white"/>
<path d="M158.97 16.95L154 13.87V7H156V12.76L160.03 15.25L158.97 16.95ZM166 12C166 17.51 161.51 22 156 22C150.49 22 146 17.51 146 12H147C147 16.96 151.04 21 156 21C160.96 21 165 16.96 165 12C165 7.04 160.96 3 156 3C152.81 3 149.92 4.64 148.28 7.38C148.17 7.56 148.06 7.75 147.97 7.94C147.96 7.96 147.95 7.98 147.94 8H152V9H145.96V3H146.96V7.74C147 7.65 147.03 7.57 147.07 7.49C147.18 7.27 147.3 7.07 147.42 6.86C149.22 3.86 152.51 2 156 2C161.51 2 166 6.49 166 12Z" fill="white"/>
<path d="M10 44L16 48L10 52V44ZM21 39V57H3V39H21ZM20 40H4V56H20V40Z" fill="white"/>
<path d="M50.97 52.95L46 49.87V43H48V48.76L52.03 51.25L50.97 52.95ZM48 39C43.04 39 39 43.04 39 48C39 52.96 43.04 57 48 57C52.96 57 57 52.96 57 48C57 43.04 52.96 39 48 39ZM48 38C53.52 38 58 42.48 58 48C58 53.52 53.52 58 48 58C42.48 58 38 53.52 38 48C38 42.48 42.48 38 48 38Z" fill="white"/>
<path d="M90.77 47H86.54L88.06 42.06C88.38 41.03 87.54 40 86.38 40C85.8 40 85.24 40.24 84.86 40.65L79 47H75V57H79H80H89.43C90.49 57 91.41 56.33 91.62 55.39L92.96 49.39C93.23 48.15 92.18 47 90.77 47ZM79 56H76V48H79V56ZM91.98 49.17L90.64 55.17C90.54 55.65 90.03 56 89.43 56H80V47.39L85.6 41.33C85.79 41.12 86.08 41 86.38 41C86.64 41 86.88 41.11 87.01 41.3C87.08 41.4 87.16 41.56 87.1 41.77L85.58 46.71L85.18 48H86.53H90.76C91.17 48 91.56 48.17 91.79 48.46C91.92 48.61 92.05 48.86 91.98 49.17Z" fill="white"/>
<path d="M120 51.7L113.6 45.4L114.3 44.7L119.9 50.3L125.5 44.7L126.2 45.4L120 51.7Z" fill="white"/>
<path d="M154 45.35L159 48L154 50.65V45.35ZM156 42C153.474 41.9508 150.948 42.0778 148.44 42.38C148.187 42.4509 147.957 42.5856 147.771 42.7713C147.586 42.9569 147.451 43.1872 147.38 43.44C147.112 44.9449 146.985 46.4715 147 48C146.985 49.5285 147.112 51.0551 147.38 52.56C147.451 52.8128 147.586 53.0431 147.771 53.2287C147.957 53.4144 148.187 53.5491 148.44 53.62C150.948 53.9222 153.474 54.0492 156 54C158.526 54.0492 161.052 53.9222 163.56 53.62C163.813 53.5491 164.043 53.4144 164.229 53.2287C164.414 53.0431 164.549 52.8128 164.62 52.56C164.888 51.0551 165.015 49.5285 165 48C165.015 46.4715 164.888 44.9449 164.62 43.44C164.549 43.1872 164.414 42.9569 164.229 42.7713C164.043 42.5856 163.813 42.4509 163.56 42.38C161.052 42.0778 158.526 41.9508 156 42ZM156 41C156 41 162.25 41 163.81 41.42C164.234 41.5344 164.621 41.758 164.931 42.0686C165.242 42.3792 165.466 42.7659 165.58 43.19C165.87 44.7767 166.01 46.3871 166 48C166.01 49.6129 165.87 51.2233 165.58 52.81C165.466 53.2341 165.242 53.6208 164.931 53.9314C164.621 54.242 164.234 54.4656 163.81 54.58C162.25 55 156 55 156 55C156 55 149.75 55 148.19 54.58C147.766 54.4656 147.379 54.242 147.069 53.9314C146.758 53.6208 146.534 53.2341 146.42 52.81C146.13 51.2233 145.99 49.6129 146 48C145.99 46.3871 146.13 44.7767 146.42 43.19C146.534 42.7659 146.758 42.3792 147.069 42.0686C147.379 41.758 147.766 41.5344 148.19 41.42C149.75 41 156 41 156 41Z" fill="white"/>
<path d="M10 84H8V86H6V84H4V82H6V80H8V82H10V84ZM17 84.5C17 83.67 16.33 83 15.5 83C14.67 83 14 83.67 14 84.5C14 85.33 14.67 86 15.5 86C16.33 86 17 85.33 17 84.5ZM20 81.5C20 80.67 19.33 80 18.5 80C17.67 80 17 80.67 17 81.5C17 82.33 17.67 83 18.5 83C19.33 83 20 82.33 20 81.5ZM16.97 77.15L12.47 79.68L11.98 79.95L11.49 79.68L6.99 77.15L3 79.39V85.82L11.98 90.86L20.96 85.82V79.39L16.97 77.15ZM16.97 76L21.96 78.8V86.4L11.98 92L2 86.4V78.8L6.99 76L11.98 78.8L16.97 76Z" fill="white"/>
<path d="M50 84C50 85.1 49.1 86 48 86C46.9 86 46 85.1 46 84C46 82.9 46.9 82 48 82C49.1 82 50 82.9 50 84ZM44.48 80.45L43.77 79.75C42.68 80.83 42 82.34 42 84C42 85.66 42.68 87.17 43.77 88.25L44.48 87.54C43.57 86.64 43 85.39 43 84C43 82.61 43.57 81.36 44.48 80.45ZM52.23 79.75L51.52 80.46C52.43 81.36 53 82.61 53 84C53 85.39 52.43 86.64 51.52 87.55L52.23 88.26C53.32 87.17 54 85.66 54 84C54 82.34 53.32 80.83 52.23 79.75ZM41.65 77.63L40.95 76.92C39.13 78.73 38 81.24 38 84C38 86.76 39.13 89.27 40.95 91.08L41.66 90.37C40.02 88.74 39 86.49 39 84C39 81.51 40.02 79.26 41.65 77.63ZM55.05 76.92L54.34 77.63C55.98 79.26 57 81.51 57 84C57 86.49 55.98 88.74 54.35 90.37L55.06 91.08C56.87 89.27 58 86.76 58 84C58 81.24 56.87 78.73 55.05 76.92Z" fill="white"/>
<path d="M89 75V77V78V82V82.51L88.99 82.97C88.94 85.1 87.66 86.94 85.74 87.67H85.72L85.66 87.69L85 87.95V88.65V91V92H86V93H87H82V92H83V91V88.65V87.95L82.34 87.71L82.26 87.68H82.25C80.33 86.95 79.05 85.11 79 82.98V82.51V82V78V77V75H89ZM90 74H78V77H76V78V82V83H78.01C78.07 85.53 79.63 87.78 81.97 88.64C81.98 88.64 81.99 88.64 82 88.65V91H81V92H80V94H88V92H87V91H86V88.65C86.01 88.65 86.02 88.65 86.03 88.64C88.36 87.78 89.93 85.54 89.99 83H92V82V78V77H90V74ZM90 82V78H91V82H90ZM77 82V78H78V82H77Z" fill="white"/>
<path d="M120 81C121.65 81 123 82.35 123 84C123 85.65 121.65 87 120 87C118.35 87 117 85.65 117 84C117 82.35 118.35 81 120 81ZM120 80C117.79 80 116 81.79 116 84C116 86.21 117.79 88 120 88C122.21 88 124 86.21 124 84C124 81.79 122.21 80 120 80ZM121.22 75L121.77 77.2L121.9 77.71L122.4 77.89C123.01 78.12 123.59 78.45 124.12 78.87L124.52 79.19L125.02 79.05L127.19 78.43L128.41 80.54L126.78 82.13L126.41 82.49L126.49 83C126.54 83.32 126.57 83.64 126.57 83.98C126.57 84.32 126.54 84.64 126.49 84.96L126.41 85.47L126.78 85.83L128.41 87.42L127.19 89.53L125.02 88.91L124.52 88.77L124.12 89.09C123.59 89.52 123.01 89.85 122.4 90.07L121.9 90.25L121.77 90.76L121.22 93H118.78L118.23 90.8L118.1 90.29L117.6 90.11C117 89.88 116.42 89.55 115.88 89.12L115.48 88.8L114.98 88.94L112.81 89.56L111.6 87.44L113.23 85.85L113.6 85.49L113.52 84.98C113.47 84.66 113.44 84.33 113.44 84C113.44 83.67 113.47 83.34 113.52 83.02L113.6 82.51L113.23 82.15L111.6 80.56L112.82 78.45L114.99 79.07L115.49 79.21L115.89 78.89C116.42 78.45 117 78.12 117.61 77.9L118.11 77.72L118.24 77.21L118.78 75H121.22ZM122 74H118L117.26 76.96C116.53 77.23 115.86 77.62 115.26 78.1L112.34 77.27L110.34 80.73L112.53 82.86C112.47 83.23 112.44 83.61 112.44 84C112.44 84.39 112.47 84.77 112.53 85.14L110.34 87.27L112.34 90.73L115.26 89.9C115.86 90.38 116.53 90.77 117.26 91.04L118 94H122L122.74 91.04C123.47 90.77 124.14 90.38 124.74 89.9L127.66 90.73L129.66 87.27L127.47 85.14C127.53 84.77 127.56 84.39 127.56 84C127.56 83.61 127.53 83.23 127.47 82.86L129.66 80.73L127.66 77.27L124.74 78.1C124.14 77.62 123.47 77.23 122.74 76.96L122 74Z" fill="white"/>
<path d="M157.18 76L157.42 77.2L157.58 78H158.4H163V85H157.82L157.58 83.8L157.42 83H156.6H150V76H157.18ZM158 75H149V93H150V84H156.6L157 86H164V77H158.4L158 75Z" fill="white"/>
<path d="M15.36 117.96C15.36 119.05 14.69 119.63 14.05 120.2C13.52 120.67 13.02 121.1 12.89 121.8L12.85 122H11.1L11.13 121.72C11.27 120.55 11.93 119.96 12.6 119.45C13.12 119.05 13.61 118.68 13.61 117.96C13.61 117.45 13.38 116.99 12.98 116.67C12.58 116.36 12.06 116.25 11.56 116.38C10.97 116.53 10.51 117.05 10.37 117.72L10.32 118H8.57L8.63 117.58C8.83 116.18 9.78 115.05 11.05 114.71C12.1 114.42 13.19 114.63 14.03 115.28C14.88 115.92 15.36 116.9 15.36 117.96ZM12 126C12.55 126 13 125.55 13 125C13 124.45 12.55 124 12 124C11.45 124 11 124.45 11 125C11 125.55 11.45 126 12 126ZM12 111C7.04 111 3 115.04 3 120C3 124.96 7.04 129 12 129C16.96 129 21 124.96 21 120C21 115.04 16.96 111 12 111ZM12 110C17.52 110 22 114.48 22 120C22 125.52 17.52 130 12 130C6.48 130 2 125.52 2 120C2 114.48 6.48 110 12 110Z" fill="white"/>
<path d="M49 122H47V120H49V122ZM49 113H47V119H49V113ZM55 111H41V127.59L44.29 124.3L44.59 124H45H55V111ZM56 110V125H45L40 130V110H56Z" fill="white"/>
<path d="M94 115H74V116H94V115ZM85 120H74V119H85V120ZM85 124H74V123H85V124ZM87 127V119L94 123L87 127Z" fill="white"/>
<path d="M114 112L126 120L114 128V112Z" fill="white"/>
</svg>
